<?xml version="1.0" standalone="no"?>
<!DOCTYPE svg PUBLIC "-//W3C//DTD SVG 20010904//EN"
 "http://www.w3.org/TR/2001/REC-SVG-20010904/DTD/svg10.dtd">
<svg version="1.0" xmlns="http://www.w3.org/2000/svg"
 width="48.000000pt" height="48.000000pt" viewBox="0 0 48.000000 48.000000"
 preserveAspectRatio="xMidYMid meet">

<g transform="translate(0.000000,48.000000) scale(0.100000,-0.100000)"
fill="#555" stroke="none">
<path d="M410 444 c-11 -12 -10 -18 3 -31 13 -13 19 -14 31 -3 9 7 16 21 16
31 0 23 -32 25 -50 3z"/>
<path d="M335 370 c-46 -47 -48 -51 -32 -67 16 -16 19 -15 52 17 33 32 34 34
17 53 -16 19 -16 19 5 6 29 -18 54 1 33 26 -7 8 -15 15 -19 15 -4 0 -29 -23
-56 -50z"/>
<path d="M157 242 c-82 -83 -97 -102 -97 -129 0 -37 36 -69 67 -59 10 3 62 50
116 104 l97 98 -43 42 -43 42 -97 -98z"/>
<path d="M40 65 c-20 -24 4 -45 26 -24 13 14 13 17 1 27 -11 10 -17 9 -27 -3z"/>
</g>
</svg>
